<svg width="228" height="44" viewBox="0 0 228 44" fill="none" xmlns="http://www.w3.org/2000/svg">
<path d="M5.23057 4.97007L20.4472 4.97043V7.47221H5.23057C4.1559 7.47221 2.41883 8.89825 2.58207 10.1757L5.85633 35.3518C6.03318 36.709 7.21668 37.4979 8.57703 37.4979H37.43C38.7904 37.4979 39.9739 36.709 40.1507 35.3518L43.4173 10.1757C43.5805 8.89825 41.8512 7.47221 40.7765 7.47221H28.7423L28.1043 4.97007H40.7765C43.3203 4.97007 46.3367 7.67405 45.9694 10.4684L42.5993 35.6445C42.2593 38.2127 40.0283 40 37.43 40H8.57703C5.97876 40 3.74779 38.2127 3.40771 35.6445L0.0304843 10.4684C-0.33681 7.67405 2.68672 4.97007 5.23057 4.97007Z" fill="#0E6CDD"/>
<path d="M19.7651 7.4722V3.00423C19.7651 0.382832 22.1579 -0.93452 24.1168 0.755417L31.7075 7.34218C33.2583 8.68615 33.1631 10.1632 31.7484 11.3874L24.076 18.054C22.1579 19.7173 19.7775 18.1072 19.7639 15.6455V13.7275H11.818C10.0904 13.7142 9.95556 14.5943 10.1732 16.1245L12.6763 33.9288L10.1596 33.7292L7.73819 16.4439C7.31649 13.4366 8.51239 11.1855 11.818 11.2254H22.2523V16.1911L30.3608 9.36478L22.2531 2.56511V7.4722H19.7651Z" fill="#0E6CDD"/>
<path d="M65.132 17H63.692V8.9H65.132V17ZM63.512 5.858C63.512 5.606 63.602 5.402 63.782 5.246C63.962 5.078 64.184 4.994 64.448 4.994C64.7 4.994 64.91 5.078 65.078 5.246C65.246 5.402 65.33 5.606 65.33 5.858C65.33 6.134 65.246 6.362 65.078 6.542C64.91 6.71 64.7 6.794 64.448 6.794C64.184 6.794 63.962 6.71 63.782 6.542C63.602 6.362 63.512 6.134 63.512 5.858ZM67.9324 13.922V6.65H69.3724V8.9H72.3424V10.25H69.3724V13.778C69.3724 15.122 69.8524 15.794 70.8124 15.794C71.2804 15.794 71.7064 15.644 72.0904 15.344L72.5404 16.46C71.9764 16.916 71.2864 17.144 70.4704 17.144C69.5944 17.144 68.9524 16.88 68.5444 16.352C68.1364 15.824 67.9324 15.014 67.9324 13.922ZM74.4581 14.84V4.4H75.8981V14.192C75.8981 15.26 76.2161 15.794 76.8521 15.794C77.1641 15.794 77.5061 15.674 77.8781 15.434L78.2021 16.532C77.6861 16.94 77.0501 17.144 76.2941 17.144C75.0701 17.144 74.4581 16.376 74.4581 14.84ZM79.2828 16.028C79.2828 15.776 79.3788 15.554 79.5708 15.362C79.7748 15.17 80.0208 15.074 80.3088 15.074C80.5608 15.074 80.7828 15.17 80.9748 15.362C81.1668 15.554 81.2628 15.776 81.2628 16.028C81.2628 16.316 81.1728 16.562 80.9928 16.766C80.8128 16.958 80.5848 17.054 80.3088 17.054C80.0208 17.054 79.7748 16.958 79.5708 16.766C79.3788 16.562 79.2828 16.316 79.2828 16.028ZM83.4581 16.244V4.4H84.8981V9.674C85.1981 9.386 85.5761 9.158 86.0321 8.99C86.5001 8.81 86.9621 8.72 87.4181 8.72C88.6061 8.72 89.5421 9.098 90.2261 9.854C90.9221 10.598 91.2701 11.588 91.2701 12.824C91.2701 14.156 90.8621 15.218 90.0461 16.01C89.2301 16.79 88.1381 17.18 86.7701 17.18C85.4141 17.18 84.3101 16.868 83.4581 16.244ZM87.0941 10.07C86.6741 10.07 86.2601 10.172 85.8521 10.376C85.4441 10.58 85.1261 10.826 84.8981 11.114V15.272C85.4501 15.644 86.0981 15.83 86.8421 15.83C87.6941 15.83 88.3901 15.566 88.9301 15.038C89.4701 14.51 89.7401 13.808 89.7401 12.932C89.7401 12.044 89.5001 11.348 89.0201 10.844C88.5401 10.328 87.8981 10.07 87.0941 10.07ZM100.537 17H92.851V15.83C94.483 14.234 95.683 12.962 96.451 12.014C97.807 10.31 98.485 8.882 98.485 7.73C98.485 7.13 98.299 6.644 97.927 6.272C97.567 5.888 97.069 5.696 96.433 5.696C95.881 5.696 95.395 5.876 94.975 6.236C94.567 6.584 94.303 7.076 94.183 7.712L92.959 7.208C93.103 6.308 93.505 5.594 94.165 5.066C94.837 4.526 95.635 4.256 96.559 4.256C97.663 4.256 98.515 4.574 99.115 5.21C99.715 5.846 100.015 6.59 100.015 7.442C100.015 9.062 99.241 10.784 97.693 12.608C96.997 13.424 96.439 14.036 96.019 14.444C95.659 14.804 95.227 15.206 94.723 15.65H100.537V17ZM109.057 14.786L109.741 15.83C109.045 16.73 108.007 17.18 106.627 17.18C105.331 17.18 104.281 16.796 103.477 16.028C102.685 15.26 102.289 14.234 102.289 12.95C102.289 11.762 102.679 10.76 103.459 9.944C104.239 9.128 105.217 8.72 106.393 8.72C107.809 8.72 108.871 9.074 109.579 9.782L108.913 10.916C108.289 10.352 107.515 10.07 106.591 10.07C105.835 10.07 105.181 10.346 104.629 10.898C104.089 11.438 103.819 12.122 103.819 12.95C103.819 13.826 104.095 14.522 104.647 15.038C105.211 15.566 105.907 15.83 106.735 15.83C107.671 15.83 108.445 15.482 109.057 14.786Z" fill="#333333"/>
<path d="M64.66 36H63.47V26.2H68.93V27.32H64.66V36ZM68.5296 35.216C67.9136 34.5813 67.6056 33.7927 67.6056 32.85C67.6056 31.898 67.9136 31.114 68.5296 30.498C69.1549 29.8727 69.9669 29.56 70.9656 29.56C71.9642 29.56 72.7716 29.8727 73.3876 30.498C74.0129 31.114 74.3256 31.898 74.3256 32.85C74.3256 33.802 74.0129 34.5907 73.3876 35.216C72.7716 35.832 71.9642 36.14 70.9656 36.14C69.9762 36.14 69.1642 35.832 68.5296 35.216ZM69.4116 31.24C69.0009 31.6507 68.7956 32.1873 68.7956 32.85C68.7956 33.5127 68.9962 34.0493 69.3976 34.46C69.8082 34.88 70.3309 35.09 70.9656 35.09C71.6002 35.09 72.1182 34.8847 72.5196 34.474C72.9302 34.054 73.1356 33.5127 73.1356 32.85C73.1356 32.206 72.9302 31.6693 72.5196 31.24C72.1182 30.82 71.6002 30.61 70.9656 30.61C70.3309 30.61 69.8129 30.82 69.4116 31.24ZM77.2075 30.82H74.8975V29.7H80.6375V30.82H78.3275V36H77.2075V30.82ZM82.1604 35.216C81.5444 34.5813 81.2364 33.7927 81.2364 32.85C81.2364 31.898 81.5444 31.114 82.1604 30.498C82.7858 29.8727 83.5978 29.56 84.5964 29.56C85.5951 29.56 86.4024 29.8727 87.0184 30.498C87.6438 31.114 87.9564 31.898 87.9564 32.85C87.9564 33.802 87.6438 34.5907 87.0184 35.216C86.4024 35.832 85.5951 36.14 84.5964 36.14C83.6071 36.14 82.7951 35.832 82.1604 35.216ZM83.0424 31.24C82.6318 31.6507 82.4264 32.1873 82.4264 32.85C82.4264 33.5127 82.6271 34.0493 83.0284 34.46C83.4391 34.88 83.9618 35.09 84.5964 35.09C85.2311 35.09 85.7491 34.8847 86.1504 34.474C86.5611 34.054 86.7664 33.5127 86.7664 32.85C86.7664 32.206 86.5611 31.6693 86.1504 31.24C85.7491 30.82 85.2311 30.61 84.5964 30.61C83.9618 30.61 83.4438 30.82 83.0424 31.24ZM89.5725 36V29.7C89.6191 29.7 89.6845 29.7 89.7685 29.7C89.8525 29.6907 89.9738 29.686 90.1325 29.686C90.2911 29.6767 90.4358 29.672 90.5665 29.672C91.2571 29.6533 91.6865 29.644 91.8545 29.644C93.6651 29.644 94.5705 30.1853 94.5705 31.268C94.5705 31.6413 94.4538 31.9633 94.2205 32.234C93.9871 32.4953 93.6838 32.654 93.3105 32.71V32.738C94.2905 32.9153 94.7805 33.41 94.7805 34.222C94.7805 35.4447 93.8145 36.056 91.8825 36.056C91.7891 36.056 91.3785 36.0467 90.6505 36.028C90.5105 36.028 90.3565 36.0233 90.1885 36.014C90.0205 36.014 89.8898 36.0093 89.7965 36C89.7031 36 89.6285 36 89.5725 36ZM92.0365 33.172H90.6925V35.104C91.3645 35.132 91.7938 35.146 91.9805 35.146C93.0538 35.146 93.5905 34.81 93.5905 34.138C93.5905 33.494 93.0725 33.172 92.0365 33.172ZM91.9385 30.554C91.6678 30.554 91.2525 30.568 90.6925 30.596V32.472H92.1065C92.4891 32.472 92.7971 32.3833 93.0305 32.206C93.2638 32.0287 93.3805 31.7907 93.3805 31.492C93.3805 30.8667 92.8998 30.554 91.9385 30.554ZM98.5204 36H96.4904V29.7H97.6104V31.59H98.6464C99.5051 31.59 100.135 31.786 100.536 32.178C100.938 32.5607 101.138 33.088 101.138 33.76C101.138 34.3947 100.928 34.9267 100.508 35.356C100.107 35.7853 99.4444 36 98.5204 36ZM103.462 36H102.342V29.7H103.462V36ZM98.4364 32.64H97.6104V34.95H98.4224C98.9544 34.95 99.3418 34.8567 99.5844 34.67C99.8271 34.4833 99.9484 34.194 99.9484 33.802C99.9484 33.0273 99.4444 32.64 98.4364 32.64ZM110.233 31.31L106.593 36H105.473V29.7H106.593V34.39L110.233 29.7H111.353V36H110.233V31.31ZM106.369 26.48H107.419C107.475 27.2173 107.834 27.586 108.497 27.586C109.122 27.586 109.463 27.2173 109.519 26.48H110.569C110.569 27.0493 110.373 27.5207 109.981 27.894C109.598 28.258 109.104 28.44 108.497 28.44C107.834 28.44 107.312 28.2627 106.929 27.908C106.556 27.544 106.369 27.068 106.369 26.48ZM121.293 31.31L117.653 36H116.533V29.7H117.653V34.39L121.293 29.7H122.413V36H121.293V31.31ZM130.189 36H129.069V33.34H125.569V36H124.449V29.7H125.569V32.29H129.069V29.7H130.189V36ZM133.727 30.82H131.417V29.7H137.157V30.82H134.847V36H133.727V30.82ZM143.146 34.432L143.496 35.314C142.889 35.8647 142.101 36.14 141.13 36.14C140.103 36.14 139.287 35.8413 138.68 35.244C138.064 34.6467 137.756 33.8487 137.756 32.85C137.756 31.9073 138.045 31.1233 138.624 30.498C139.193 29.8727 139.987 29.56 141.004 29.56C141.844 29.56 142.539 29.8307 143.09 30.372C143.65 30.904 143.93 31.5947 143.93 32.444C143.93 32.7147 143.907 32.9667 143.86 33.2H139.016C139.063 33.788 139.282 34.25 139.674 34.586C140.075 34.922 140.589 35.09 141.214 35.09C142.035 35.09 142.679 34.8707 143.146 34.432ZM140.948 30.61C140.397 30.61 139.94 30.764 139.576 31.072C139.221 31.38 139.011 31.786 138.946 32.29H142.768C142.74 31.7673 142.563 31.3567 142.236 31.058C141.919 30.7593 141.489 30.61 140.948 30.61ZM146.569 38.8H145.449V29.7H146.569V30.442C146.793 30.1807 147.101 29.9707 147.493 29.812C147.885 29.644 148.291 29.56 148.711 29.56C149.607 29.56 150.312 29.8587 150.825 30.456C151.357 31.044 151.623 31.8093 151.623 32.752C151.623 33.7133 151.32 34.5207 150.713 35.174C150.116 35.818 149.327 36.14 148.347 36.14C147.591 36.14 146.999 35.9953 146.569 35.706V38.8ZM148.389 30.61C147.643 30.61 147.036 30.8993 146.569 31.478V34.6C147.064 34.9267 147.624 35.09 148.249 35.09C148.912 35.09 149.439 34.88 149.831 34.46C150.233 34.0307 150.433 33.4753 150.433 32.794C150.433 32.1313 150.251 31.604 149.887 31.212C149.523 30.8107 149.024 30.61 148.389 30.61ZM158.969 36H157.849V33.34H154.349V36H153.229V29.7H154.349V32.29H157.849V29.7H158.969V36ZM165.964 34.432L166.314 35.314C165.708 35.8647 164.919 36.14 163.948 36.14C162.922 36.14 162.105 35.8413 161.498 35.244C160.882 34.6467 160.574 33.8487 160.574 32.85C160.574 31.9073 160.864 31.1233 161.442 30.498C162.012 29.8727 162.805 29.56 163.822 29.56C164.662 29.56 165.358 29.8307 165.908 30.372C166.468 30.904 166.748 31.5947 166.748 32.444C166.748 32.7147 166.725 32.9667 166.678 33.2H161.834C161.881 33.788 162.1 34.25 162.492 34.586C162.894 34.922 163.407 35.09 164.032 35.09C164.854 35.09 165.498 34.8707 165.964 34.432ZM163.766 30.61C163.216 30.61 162.758 30.764 162.394 31.072C162.04 31.38 161.83 31.786 161.764 32.29H165.586C165.558 31.7673 165.381 31.3567 165.054 31.058C164.737 30.7593 164.308 30.61 163.766 30.61ZM169.657 30.82H167.347V29.7H173.087V30.82H170.777V36H169.657V30.82ZM177.658 32.71H174.312V31.66H177.658V32.71ZM180.831 36H179.711V29.7H180.733L183.155 32.822L185.451 29.7H186.445V36H185.325V31.408L183.141 34.334H183.099L180.831 31.408V36ZM188.811 31.03L188.517 30.134C189.142 29.7513 189.842 29.56 190.617 29.56C191.466 29.56 192.082 29.77 192.465 30.19C192.847 30.61 193.039 31.2587 193.039 32.136V36H191.975V35.188C191.48 35.7947 190.808 36.098 189.959 36.098C189.38 36.098 188.913 35.9253 188.559 35.58C188.204 35.2253 188.027 34.7493 188.027 34.152C188.027 33.536 188.246 33.0507 188.685 32.696C189.123 32.332 189.697 32.15 190.407 32.15C191.069 32.15 191.592 32.2853 191.975 32.556C191.975 31.8467 191.877 31.338 191.681 31.03C191.485 30.722 191.107 30.568 190.547 30.568C189.977 30.568 189.399 30.722 188.811 31.03ZM190.351 35.09C190.976 35.09 191.517 34.8193 191.975 34.278V33.48C191.583 33.2 191.111 33.06 190.561 33.06C190.178 33.06 189.856 33.1533 189.595 33.34C189.343 33.5173 189.217 33.7693 189.217 34.096C189.217 34.404 189.315 34.6467 189.511 34.824C189.716 35.0013 189.996 35.09 190.351 35.09ZM196.034 36H194.914V29.7H198.904V30.75H196.034V36ZM200.323 31.03L200.029 30.134C200.654 29.7513 201.354 29.56 202.129 29.56C202.978 29.56 203.594 29.77 203.977 30.19C204.359 30.61 204.551 31.2587 204.551 32.136V36H203.487V35.188C202.992 35.7947 202.32 36.098 201.471 36.098C200.892 36.098 200.425 35.9253 200.071 35.58C199.716 35.2253 199.539 34.7493 199.539 34.152C199.539 33.536 199.758 33.0507 200.197 32.696C200.635 32.332 201.209 32.15 201.919 32.15C202.581 32.15 203.104 32.2853 203.487 32.556C203.487 31.8467 203.389 31.338 203.193 31.03C202.997 30.722 202.619 30.568 202.059 30.568C201.489 30.568 200.911 30.722 200.323 31.03ZM201.863 35.09C202.488 35.09 203.029 34.8193 203.487 34.278V33.48C203.095 33.2 202.623 33.06 202.073 33.06C201.69 33.06 201.368 33.1533 201.107 33.34C200.855 33.5173 200.729 33.7693 200.729 34.096C200.729 34.404 200.827 34.6467 201.023 34.824C201.228 35.0013 201.508 35.09 201.863 35.09ZM208.512 36.14C208.036 36.14 207.532 36.0607 207 35.902C206.487 35.734 206.123 35.5287 205.908 35.286L206.482 34.446C206.734 34.6513 207.033 34.8193 207.378 34.95C207.733 35.0713 208.055 35.132 208.344 35.132C208.829 35.132 209.226 35.0387 209.534 34.852C209.842 34.656 209.996 34.404 209.996 34.096C209.996 33.8347 209.884 33.634 209.66 33.494C209.445 33.354 209.147 33.284 208.764 33.284H207.7V32.374H208.694C209.011 32.374 209.273 32.29 209.478 32.122C209.683 31.9447 209.786 31.73 209.786 31.478C209.786 31.198 209.665 30.9787 209.422 30.82C209.179 30.652 208.853 30.568 208.442 30.568C207.779 30.568 207.149 30.8013 206.552 31.268L206.118 30.4C206.37 30.1387 206.72 29.9333 207.168 29.784C207.625 29.6347 208.106 29.56 208.61 29.56C209.357 29.56 209.935 29.7093 210.346 30.008C210.766 30.3067 210.976 30.722 210.976 31.254C210.976 31.982 210.607 32.4767 209.87 32.738V32.766C210.281 32.8127 210.603 32.976 210.836 33.256C211.069 33.5267 211.186 33.858 211.186 34.25C211.186 34.8287 210.939 35.2907 210.444 35.636C209.959 35.972 209.315 36.14 208.512 36.14ZM217.653 31.31L214.013 36H212.893V29.7H214.013V34.39L217.653 29.7H218.773V36H217.653V31.31ZM226.549 36H225.429V33.34H221.929V36H220.809V29.7H221.929V32.29H225.429V29.7H226.549V36Z" fill="#333333"/>
</svg>
